<?xml version="1.0" standalone="no"?>
<!DOCTYPE svg PUBLIC "-//W3C//DTD SVG 20010904//EN"
 "http://www.w3.org/TR/2001/REC-SVG-20010904/DTD/svg10.dtd">
<svg version="1.0" xmlns="http://www.w3.org/2000/svg"
 width="512.000000pt" height="512.000000pt" viewBox="0 0 512.000000 512.000000"
 preserveAspectRatio="xMidYMid meet">

<g transform="translate(0.000000,512.000000) scale(0.100000,-0.100000)"
fill="#000000" stroke="none">
<path d="M2190 5114 c-503 -14 -1195 -65 -1370 -100 -329 -67 -609 -330 -701
-659 -31 -111 -73 -559 -100 -1075 -16 -291 -16 -1151 0 -1440 26 -498 68
-952 97 -1065 82 -316 342 -574 665 -660 112 -30 613 -73 1169 -101 515 -25
1205 -13 1790 31 493 38 614 58 757 125 110 51 191 110 279 201 86 91 125 146
174 252 67 144 85 255 125 757 39 495 52 1425 26 1900 -25 476 -69 954 -96
1059 -72 279 -287 523 -555 630 -126 50 -282 72 -750 106 -443 32 -1137 50
-1510 39z m-649 -974 c163 -55 273 -185 299 -356 29 -183 -72 -370 -245 -455
-67 -33 -74 -34 -185 -34 -109 0 -119 2 -182 32 -158 75 -258 229 -258 398 0
151 97 316 225 383 103 54 242 67 346 32z m2059 -1028 c330 -87 495 -325 540
-781 14 -146 13 -1286 -1 -1314 -29 -56 -31 -57 -334 -57 -243 0 -284 2 -304
16 -51 36 -51 41 -51 653 1 475 -2 580 -14 635 -30 128 -80 203 -167 251 -69
37 -198 47 -277 21 -106 -36 -188 -129 -234 -265 -22 -64 -23 -80 -28 -659
l-5 -594 -33 -29 -32 -29 -276 0 -276 0 -29 29 -29 29 0 1011 0 1011 29 32 29
33 264 3 c349 4 358 0 358 -171 l0 -88 49 59 c73 87 176 157 286 192 132 43
393 49 535 12z m-1903 -28 c15 -11 34 -32 40 -45 20 -38 18 -1967 -1 -2014
-26 -61 -44 -65 -337 -65 l-261 0 -34 34 -34 34 0 1004 c0 911 2 1006 16 1027
33 47 60 51 331 48 238 -2 253 -3 280 -23z"/>
</g>
</svg>
